<svg id="dkte_logo" data-name="dkte logo" xmlns="http://www.w3.org/2000/svg" width="143.202" height="39.34"
    viewBox="0 0 143.202 39.34">
    <path id="Path_206" data-name="Path 206"
        d="M104.686,50.928H83.22a5.613,5.613,0,0,0-5.657,4.362L72.188,84.149a4.922,4.922,0,0,0,1.275,4.262,5.976,5.976,0,0,0,4.39,1.857h21.46a5.616,5.616,0,0,0,5.657-4.361l5.374-28.86a4.922,4.922,0,0,0-1.272-4.259A5.975,5.975,0,0,0,104.686,50.928Z"
        transform="translate(-72.107 -50.928)" fill="#fecc00" />
    <path id="Path_207" data-name="Path 207"
        d="M136.367,50.928H114.9a5.615,5.615,0,0,0-5.657,4.361l-5.37,28.86a4.923,4.923,0,0,0,1.274,4.26,5.977,5.977,0,0,0,4.387,1.859H131a5.615,5.615,0,0,0,5.657-4.361l5.374-28.86a4.923,4.923,0,0,0-1.276-4.262A5.978,5.978,0,0,0,136.367,50.928Z"
        transform="translate(-68.791 -50.928)" fill="#fecc00" />
    <path id="Path_208" data-name="Path 208"
        d="M167.862,50.928H146.4a5.615,5.615,0,0,0-5.657,4.361l-5.37,28.86a4.923,4.923,0,0,0,1.274,4.26,5.977,5.977,0,0,0,4.387,1.859H162.5a5.615,5.615,0,0,0,5.657-4.361l5.374-28.86a4.923,4.923,0,0,0-1.276-4.262A5.978,5.978,0,0,0,167.862,50.928Z"
        transform="translate(-65.494 -50.928)" fill="#fecc00" />
    <path id="Path_209" data-name="Path 209"
        d="M199.625,50.928H178.158a5.615,5.615,0,0,0-5.657,4.361l-5.37,28.86a4.923,4.923,0,0,0,1.274,4.26,5.977,5.977,0,0,0,4.387,1.859H194.26a5.615,5.615,0,0,0,5.657-4.361l5.374-28.86a4.923,4.923,0,0,0-1.276-4.262,5.978,5.978,0,0,0-4.39-1.857Z"
        transform="translate(-62.17 -50.928)" fill="#fecc00" />
    <path id="Path_210" data-name="Path 210"
        d="M103.14,63.575c-1.332-6.219-8.784-5.678-8.784-5.678H82.709l-4.441,25.28H90.623a12.172,12.172,0,0,0,10.889-7.03S104.472,69.794,103.14,63.575Zm-8.587,10.68c-.888,3.109-4.406,3.245-4.406,3.245H86.855L89.224,63.71h3.2c3.642.541,3.316,3.515,3.316,3.515C95.886,71.957,94.553,74.255,94.553,74.255Z"
        transform="translate(-71.462 -50.867)" />
    <path id="Path_211" data-name="Path 211"
        d="M55.725,16.568l6.6,15.686H52.885L49.507,21.975l-4.589,4.191-1.13,6.088H36.116l4.447-25.3h7.774l-1.643,9.475,9.552-9.475H66.5Z"
        transform="translate(3.786 0.061)" />
    <path id="Path_212" data-name="Path 212"
        d="M95.814,6.957l-1.133,6.231H86.835l-3.31,19.066H75.818l3.361-18.931H71.29l1.134-6.366Z"
        transform="translate(7.467 0.061)" />
    <path id="Path_213" data-name="Path 213"
        d="M112.528,12.242l-.592,4.191h11.548l-.8,5.137H111l-.844,5h12.88l-1,5.682h-20.4l4.313-25.3h20.13l-.964,5.285Z"
        transform="translate(10.643 0.061)" />
</svg>